PathFileType	4	(X/Y/Z)	C:\Users\WrightLab\Desktop\Jo\P1.2Trial5.trc
DataRate	CameraRate	NumFrames	NumMarkers	Units	OrigDataRate	OrigDataStartFrame	OrigNumFrames
100.00	100.00	       6	19	mm	100.00	764	       872
Frame#	Time	Headset_Front			Headset_Back			Headset_Left			Headset_Right			Left_Shoulder			Right_Shoulder			Sternum			C7			Left Elbow			Right Elbow			Left Wrist			Right Wrist			Left ASIS			Right ASIS			S2			Left Knee			Right Knee			Left Ankle			Right Ankle			
		X1	Y1	Z1	X2	Y2	Z2	X3	Y3	Z3	X4	Y4	Z4	X5	Y5	Z5	X6	Y6	Z6	X7	Y7	Z7	X8	Y8	Z8	X9	Y9	Z9	X10	Y10	Z10	X11	Y11	Z11	X12	Y12	Z12	X13	Y13	Z13	X14	Y14	Z14	X15	Y15	Z15	X16	Y16	Z16	X17	Y17	Z17	X18	Y18	Z18	X19	Y19	Z19	

764	7.630	-633.01147	1368.88269	-851.51953	-746.79077	1498.50037	-597.97302	-802.76306	1434.32935	-745.32306				-936.49274	1218.94458	-678.24585	-519.51990	1244.29504	-627.39648	-713.61279	1165.36267	-767.77014	-743.90576	1284.95618	-535.81183	-1021.47473	940.80725	-685.80688	-422.04483	1004.27863	-586.11127	-1122.80591	782.43085	-790.76068	-283.59912	798.07233	-663.09351	-726.41718	888.70618	-472.81238	-572.76978	842.43439	-742.91925	-832.16296	849.65637	-777.70764				-564.73682	402.42224	-679.69421	-924.47656	136.53072	-670.23407	-873.19348	467.41754	-871.12042	
765	7.640	-630.81610	1369.43091	-858.93109	-746.96503	1498.03723	-605.45880	-801.29120	1434.44202	-753.61292				-935.22656	1218.53845	-687.26080	-517.75684	1244.36169	-631.79572	-711.38019	1165.27856	-775.60052	-744.84558	1285.48535	-545.18988	-1020.12366	940.87158	-693.40991	-420.42905	1004.63702	-593.36261	-1119.68872	780.62036	-799.23700	-282.61975	797.08850	-668.27258	-728.87903	887.31390	-480.60727	-573.40875	841.24786	-746.80865	-829.23596	849.50635	-787.46057	-313.00790	1131.74719	-1387.55652	-563.89868	401.64011	-683.70648				-867.76367	470.04761	-883.44788	
766	7.650	-628.73083	1369.68042	-865.84570	-746.38776	1497.25842	-613.10254	-799.90552	1434.10889	-761.44952	-573.36993	1409.82166	-727.97644	-934.03094	1217.97681	-696.29285	-517.85303	1242.67627	-641.06097	-709.25659	1164.98145	-783.76367	-745.10907	1285.18384	-553.18170	-1017.55566	939.25623	-700.83057	-418.77567	1004.09503	-599.29370	-1117.55566	779.12170	-807.51001	-280.81311	797.29016	-674.60126	-731.49310	886.73663	-490.12320	-571.27441	840.76416	-751.30701	-826.56854	848.71674	-796.89893	-922.21075	118.57246	-745.63666	-562.80945	400.86206	-686.92474				-862.40338	471.29904	-895.03101	
767	7.660	-626.48285	1370.06970	-873.46014	-745.74115	1497.33057	-620.76947	-798.43170	1433.73157	-769.65186				-932.64148	1217.36597	-705.80768	-516.35858	1243.28967	-646.38580	-707.07373	1164.31091	-791.21350	-744.15973	1284.86548	-561.63635	-1014.80951	937.35602	-708.28979	-419.29279	1003.12329	-604.50409	-1115.00964	777.23303	-815.37988	-279.12659	797.19940	-679.63647	-733.86615	885.88733	-498.27676	-568.38922	840.68329	-758.11017	-823.58179	848.08173	-806.50598	-311.49280	1130.95984	-1396.93176	-561.52405	400.52750	-691.01782				-856.67383	472.12158	-905.65448	
768	7.670	-624.28345	1370.34265	-880.82550	-746.12769	1496.40735	-628.16370	-797.07556	1433.07593	-777.37903				-931.66956	1216.80334	-715.30023	-515.36353	1241.98682	-649.09131	-704.87555	1163.63208	-799.10529	-744.18256	1284.72791	-569.76086	-1012.08386	936.56738	-715.93530	-418.64151	1002.10901	-609.66058	-1113.51831	776.28674	-823.47382	-279.07327	795.44482	-683.85150	-736.44171	885.24481	-505.79337	-565.43774	839.53711	-763.83813	-820.91333	846.95306	-815.80249	-310.28961	1130.28540	-1400.37366	-560.73877	400.05109	-694.79742				-850.97095	472.43246	-915.78912	
769	7.680	-622.06458	1370.44556	-888.21844	-745.47485	1495.62842	-635.83624	-795.70648	1432.39722	-785.51208				-930.19385	1215.94434	-725.01801	-514.63489	1240.83997	-654.65625	-702.62982	1163.10706	-807.68677	-744.36945	1283.77612	-577.51617	-1010.33667	936.26099	-723.59155	-418.43393	1000.86102	-614.19818	-1110.85742	773.81628	-831.02496	-278.35059	793.95648	-688.83264	-738.86597	884.24890	-516.59430	-564.27802	838.55640	-768.62268	-817.92621	846.46387	-825.59863	-918.07727	103.61198	-829.46948	-560.63770	398.46069	-697.53271				-844.86810	472.17758	-924.99402	
